<svg xmlns="http://www.w3.org/2000/svg" width="34" height="34" viewBox="0 0 34 34" fill="none" role="img" data-testid="bp-logo-helios" class="ui-logo" aria-hidden="true"><title>bp logo</title><path fill-rule="evenodd" clip-rule="evenodd" d="M19.3113 4.10338C18.6761 2.66585 17.9021 1.29174 17 0C16.0965 1.29088 15.3224 2.66513 14.6887 4.10338C15.5858 5.03972 16.3621 6.08151 17 7.20513C17.6367 6.08074 18.4131 5.0388 19.3113 4.10338Z" fill="#009900"></path><path fill-rule="evenodd" clip-rule="evenodd" d="M14.6899 29.8978C15.3236 31.3357 16.0977 32.7096 17.0012 34C17.903 32.7087 18.6766 31.3349 19.3113 29.8978C18.4137 28.9615 17.6373 27.9192 17 26.7949C16.3619 27.9184 15.5861 28.9605 14.6899 29.8978Z" fill="#009900"></path><path fill-rule="evenodd" clip-rule="evenodd" d="M14.6899 4.10343C13.5958 2.96419 12.3905 1.93359 11.0917 1.02649C10.6908 2.54346 10.4418 4.09544 10.348 5.66022C11.5146 6.23872 12.6049 6.95549 13.5949 7.79459C13.8047 6.52462 14.1725 5.28492 14.6899 4.10343Z" fill="#009900"></path><path fill-rule="evenodd" clip-rule="evenodd" d="M19.3113 29.8977C20.4058 31.0366 21.611 32.0672 22.9095 32.9747C23.3095 31.4579 23.5589 29.9064 23.6544 28.3421C22.4875 27.7628 21.3971 27.0448 20.4075 26.2042C20.1962 27.4748 19.828 28.7151 19.3113 29.8977Z" fill="#009900"></path><path fill-rule="evenodd" clip-rule="evenodd" d="M10.3528 5.66022C8.9295 4.95885 7.44044 4.39515 5.90656 3.97705C6.05548 5.53812 6.35959 7.08103 6.81452 8.58361C8.11256 8.73243 9.38686 9.03911 10.6083 9.49665C10.3612 8.23331 10.2754 6.94452 10.3528 5.66022Z" fill="#009900"></path><path fill-rule="evenodd" clip-rule="evenodd" d="M23.6496 28.3422C25.0728 29.0432 26.5619 29.6061 28.0959 30.023C27.9459 28.4619 27.641 26.919 27.1855 25.4164C25.8866 25.267 24.6114 24.9595 23.3893 24.501C23.6368 25.7659 23.7242 27.0561 23.6496 28.3422Z" fill="#009900"></path><path fill-rule="evenodd" clip-rule="evenodd" d="M8.38698 12.1034C7.71951 10.9974 7.19147 9.81542 6.81454 8.58355C5.23349 8.40244 3.63819 8.37474 2.05164 8.50087C2.73536 9.91429 3.55639 11.2592 4.50325 12.5168C5.77561 12.2221 7.08006 12.0833 8.38698 12.1034Z" fill="#009900"></path><path fill-rule="evenodd" clip-rule="evenodd" d="M25.6119 21.8977C26.2837 23.0017 26.8123 24.1842 27.1855 25.4176C28.7675 25.5971 30.3634 25.6251 31.9508 25.5015C31.2677 24.085 30.4458 22.7376 29.4968 21.4784C28.2243 21.7754 26.9195 21.9162 25.6119 21.8977Z" fill="#009900"></path><path fill-rule="evenodd" clip-rule="evenodd" d="M4.50324 12.5216C2.95559 12.8851 1.44759 13.3962 0.000610352 14.0477C1.13525 15.1472 2.37523 16.1362 3.70322 17.0006C4.79492 16.2935 5.9713 15.7222 7.20553 15.2997C6.19332 14.4854 5.28584 13.5525 4.50324 12.5216Z" fill="#009900"></path><path fill-rule="evenodd" clip-rule="evenodd" d="M30.2968 17.0006C29.2055 17.7078 28.0295 18.2791 26.7957 18.7015C27.8086 19.5142 28.7158 20.4469 29.4968 21.4784C31.0447 21.116 32.5528 20.6049 33.9994 19.9524C32.8664 18.8513 31.6262 17.8626 30.2968 17.0006Z" fill="#009900"></path><path fill-rule="evenodd" clip-rule="evenodd" d="M7.20553 18.7015C5.97107 18.2796 4.79463 17.7082 3.70322 17.0006C2.37447 17.8636 1.13439 18.8522 0.000610352 19.9524C1.44759 20.6038 2.95559 21.115 4.50324 21.4784C5.28524 20.4474 6.19279 19.5148 7.20553 18.7015Z" fill="#009900"></path><path fill-rule="evenodd" clip-rule="evenodd" d="M26.7957 15.2997C28.0293 15.7226 29.2053 16.2939 30.2968 17.0006C31.6255 16.1371 32.8656 15.1481 33.9994 14.0477C32.5528 13.3952 31.0447 12.884 29.4968 12.5216C28.7149 13.5528 27.8078 14.4857 26.7957 15.2997Z" fill="#009900"></path><path fill-rule="evenodd" clip-rule="evenodd" d="M4.50325 21.4784C3.55517 22.7377 2.73408 24.0851 2.05164 25.5015C3.63829 25.6251 5.23339 25.597 6.81454 25.4176C7.19147 24.1857 7.71951 23.0037 8.38698 21.8977C7.07981 21.916 5.77536 21.7751 4.50325 21.4784Z" fill="#009900"></path><path fill-rule="evenodd" clip-rule="evenodd" d="M29.4968 12.5216C30.4456 11.2622 31.2675 9.91484 31.9508 8.4985C30.3633 8.37476 28.7674 8.40325 27.1855 8.58354C26.8123 9.81696 26.2837 10.9995 25.6119 12.1034C26.9194 12.0845 28.2243 12.225 29.4968 12.5216Z" fill="#009900"></path><path fill-rule="evenodd" clip-rule="evenodd" d="M10.6083 24.501C9.38681 24.9591 8.11259 25.267 6.81452 25.4176C6.35944 26.9202 6.05532 28.4631 5.90656 30.0242C7.44029 29.6067 8.92934 29.0438 10.3528 28.3434C10.2753 27.0571 10.3611 25.7664 10.6083 24.501Z" fill="#009900"></path><path fill-rule="evenodd" clip-rule="evenodd" d="M23.3893 9.49665C24.6104 9.03913 25.8843 8.73244 27.1819 8.58361C27.6373 7.08102 27.9422 5.53814 28.0923 3.97705C26.5582 4.39341 25.069 4.95635 23.646 5.65785C23.7218 6.94298 23.6356 8.23241 23.3893 9.49665Z" fill="#009900"></path><path fill-rule="evenodd" clip-rule="evenodd" d="M10.3528 28.3421C10.4469 29.9065 10.6959 31.4581 11.0965 32.9747C12.3951 32.0672 13.6002 31.0366 14.6947 29.8977C14.179 28.7152 13.8128 27.4747 13.6045 26.2042C12.6134 27.0451 11.5214 27.7631 10.3528 28.3421Z" fill="#009900"></path><path fill-rule="evenodd" clip-rule="evenodd" d="M23.6496 5.65785C23.5558 4.0941 23.308 2.54303 22.9095 1.02649C21.6107 1.93363 20.4055 2.96423 19.3113 4.10343C19.8263 5.2854 20.1924 6.525 20.4016 7.79459C21.3918 6.95469 22.4826 6.23713 23.6496 5.65785Z" fill="#009900"></path><path fill-rule="evenodd" clip-rule="evenodd" d="M15.8174 10.392C16.0379 9.27387 16.4375 8.19739 17.0012 7.20282C16.3633 6.07921 15.587 5.03742 14.6899 4.10107C14.1742 5.28277 13.808 6.52246 13.5997 7.79223C14.4737 8.53802 15.2222 9.41548 15.8174 10.392Z" fill="#99CC00"></path><path fill-rule="evenodd" clip-rule="evenodd" d="M18.1851 23.608C17.9634 24.7258 17.5639 25.8022 17.0012 26.7972C17.6383 27.9207 18.4142 28.9621 19.3113 29.8978C19.826 28.7149 20.1921 27.4745 20.4016 26.2042C19.5276 25.4601 18.7794 24.5837 18.1851 23.608Z" fill="#99CC00"></path><path fill-rule="evenodd" clip-rule="evenodd" d="M10.6083 9.49665C11.6877 9.90201 12.6953 10.4729 13.5937 11.1881C13.4112 10.0641 13.4112 8.91862 13.5937 7.79459C12.6056 6.95589 11.5173 6.23913 10.3528 5.66022C10.2754 6.94452 10.3612 8.23331 10.6083 9.49665Z" fill="#99CC00"></path><path fill-rule="evenodd" clip-rule="evenodd" d="M23.3893 24.501C22.3115 24.0958 21.3056 23.5254 20.4088 22.8107C20.5886 23.9343 20.5865 25.0789 20.4028 26.2019C21.3923 27.0424 22.4827 27.7604 23.6496 28.3398C23.724 27.0545 23.6366 25.7651 23.3893 24.501Z" fill="#99CC00"></path><path fill-rule="evenodd" clip-rule="evenodd" d="M11.7825 12.6869C11.2214 11.6921 10.825 10.6155 10.6083 9.49776C9.38686 9.04022 8.11255 8.73353 6.81451 8.58472C7.19144 9.81659 7.71949 10.9986 8.38696 12.1046C9.54296 12.1206 10.6891 12.3172 11.7825 12.6869Z" fill="#99CC00"></path><path fill-rule="evenodd" clip-rule="evenodd" d="M22.2199 21.3142C22.7796 22.3095 23.1755 23.3859 23.3929 24.5034C24.6138 24.962 25.8877 25.2699 27.1855 25.4199C26.8123 24.1865 26.2837 23.004 25.6119 21.9001C24.4569 21.8823 23.3121 21.6846 22.2199 21.3142Z" fill="#99CC00"></path><path fill-rule="evenodd" clip-rule="evenodd" d="M7.20553 15.2997C8.29715 14.9266 9.44216 14.7273 10.5975 14.7091C9.72572 13.9635 8.97959 13.0864 8.38696 12.1105C7.07984 12.0919 5.77539 12.2323 4.50323 12.5287C5.28629 13.5571 6.19375 14.4876 7.20553 15.2997Z" fill="#99CC00"></path><path fill-rule="evenodd" clip-rule="evenodd" d="M26.7957 18.7015C25.7036 19.0726 24.5589 19.272 23.4037 19.2921C24.2753 20.0372 25.0207 20.9144 25.6119 21.8906C26.9195 21.9091 28.2243 21.7683 29.4968 21.4713C28.7154 20.4422 27.8082 19.512 26.7957 18.7015Z" fill="#99CC00"></path><path fill-rule="evenodd" clip-rule="evenodd" d="M10.1861 17.0006C9.108 16.5914 8.10214 16.0174 7.20556 15.2997C5.97132 15.7221 4.79494 16.2935 3.70325 17.0006C4.79465 17.7082 5.9711 18.2795 7.20556 18.7014C8.10125 17.9825 9.10733 17.4084 10.1861 17.0006Z" fill="#99CC00"></path><path fill-rule="evenodd" clip-rule="evenodd" d="M23.8139 17.0006C24.8933 17.4078 25.8999 17.982 26.7957 18.7014C28.0295 18.279 29.2055 17.7077 30.2968 17.0006C29.2053 16.2939 28.0293 15.7226 26.7957 15.2997C25.899 16.0179 24.8926 16.5919 23.8139 17.0006Z" fill="#99CC00"></path><path fill-rule="evenodd" clip-rule="evenodd" d="M8.38696 21.8978C8.97938 20.9217 9.72553 20.0446 10.5975 19.2992C9.44222 19.2804 8.29732 19.081 7.20553 18.7086C6.19279 19.5219 5.28524 20.4545 4.50323 21.4855C5.77564 21.7799 7.08009 21.9183 8.38696 21.8978Z" fill="#99CC00"></path><path fill-rule="evenodd" clip-rule="evenodd" d="M25.6119 12.1034C25.0205 13.0795 24.2752 13.9567 23.4037 14.702C24.5591 14.7204 25.704 14.9198 26.7957 15.2926C27.8079 14.4786 28.715 13.5456 29.4968 12.5145C28.224 12.2203 26.9191 12.0822 25.6119 12.1034Z" fill="#99CC00"></path><path fill-rule="evenodd" clip-rule="evenodd" d="M11.7825 21.3142C10.689 21.6838 9.54297 21.8807 8.38696 21.8977C7.71949 23.0037 7.19144 24.1857 6.81451 25.4176C8.11258 25.2669 9.38681 24.9591 10.6083 24.501C10.8247 23.3839 11.2211 22.3081 11.7825 21.3142Z" fill="#99CC00"></path><path fill-rule="evenodd" clip-rule="evenodd" d="M22.2199 12.687C23.3121 12.317 24.457 12.12 25.6119 12.1035C26.2837 10.9995 26.8123 9.81704 27.1855 8.58362C25.8866 8.73216 24.6115 9.03885 23.3893 9.49666C23.1727 10.6141 22.778 11.6909 22.2199 12.687Z" fill="#99CC00"></path><path fill-rule="evenodd" clip-rule="evenodd" d="M15.8174 23.608C15.2226 24.5844 14.474 25.4616 13.5997 26.2066C13.8082 27.4763 14.1744 28.716 14.6899 29.8978C15.5865 28.9605 16.3627 27.9184 17.0012 26.7948C16.4378 25.801 16.0382 24.7253 15.8174 23.608Z" fill="#99CC00"></path><path fill-rule="evenodd" clip-rule="evenodd" d="M13.5937 22.8107C12.6952 23.5249 11.6876 24.0946 10.6083 24.4986C10.3612 25.7636 10.2754 27.0539 10.3528 28.3398C11.5197 27.7604 12.6101 27.0424 13.5997 26.2019C13.4153 25.0789 13.4133 23.9343 13.5937 22.8107Z" fill="#99CC00"></path><path fill-rule="evenodd" clip-rule="evenodd" d="M18.185 10.3919C18.7793 9.41515 19.5279 8.53794 20.4028 7.79336C20.1932 6.52413 19.8266 5.28493 19.3113 4.10339C18.4131 5.03882 17.6367 6.08075 17 7.20514C17.5629 8.19937 17.9628 9.27488 18.185 10.3919Z" fill="#99CC00"></path><path fill-rule="evenodd" clip-rule="evenodd" d="M20.4088 11.1881C21.3056 10.4732 22.3115 9.90233 23.3893 9.49664C23.6356 8.23239 23.7218 6.94297 23.646 5.65784C22.4794 6.2372 21.389 6.95476 20.3992 7.79457C20.5841 8.91816 20.5874 10.0635 20.4088 11.1881Z" fill="#99CC00"></path><path fill-rule="evenodd" clip-rule="evenodd" d="M15.821 13.8138C15.2532 12.8081 14.4975 11.9173 13.5937 11.1881C13.7838 12.3229 14.1882 13.4127 14.7859 14.4008C13.9044 13.6494 12.8872 13.068 11.7873 12.687C12.3579 13.6904 13.1166 14.5782 14.0231 15.3033C12.9311 14.8938 11.7706 14.6906 10.6023 14.7044C11.4881 15.4544 12.5095 16.0334 13.6129 16.4112C12.4447 16.3951 11.2839 16.5954 10.1909 17.0018C11.2841 17.4075 12.4448 17.6079 13.6129 17.5924C12.5097 17.9702 11.4885 18.5488 10.6023 19.298C11.7707 19.3129 12.9315 19.1097 14.0231 18.6991C13.1166 19.4251 12.358 20.3137 11.7873 21.3178C12.8864 20.9345 13.9033 20.3529 14.7859 19.6027C14.185 20.5905 13.7781 21.6808 13.5865 22.8167C14.4924 22.0867 15.2505 21.1951 15.821 20.1886C15.6043 21.3184 15.6043 22.4782 15.821 23.6081C16.4162 22.6186 16.8177 21.5281 17.0048 20.3929C17.1914 21.5282 17.593 22.6189 18.1887 23.6081C18.4044 22.4779 18.4024 21.3179 18.1827 20.1886C18.7526 21.1914 19.5075 22.0807 20.4088 22.8108C20.2171 21.6749 19.8102 20.5846 19.2094 19.5968C20.0942 20.3477 21.1136 20.9293 22.2151 21.3119C21.6437 20.308 20.8847 19.4195 19.9782 18.6932C21.0698 19.1037 22.2305 19.3069 23.3989 19.2921C22.5126 18.5443 21.4925 17.9659 20.3908 17.5865C21.5586 17.6033 22.7192 17.4029 23.8115 16.9959C22.719 16.5894 21.5586 16.3891 20.3908 16.4053C21.4941 16.0272 22.5154 15.4483 23.4013 14.6985C22.2326 14.6849 21.0718 14.8881 19.9794 15.2973C20.8865 14.5723 21.6459 13.6845 22.2175 12.6811C21.1156 13.0623 20.0961 13.6436 19.2118 14.3949C19.8124 13.4075 20.2193 12.3176 20.4112 11.1822C19.5076 11.9122 18.7512 12.8029 18.1815 13.8079C18.4017 12.6766 18.4037 11.5146 18.1875 10.3825C17.5912 11.3719 17.1896 12.463 17.0036 13.5988C16.8172 12.4631 16.4156 11.3721 15.8198 10.3825C15.6024 11.5163 15.6028 12.6802 15.821 13.8138Z" fill="white"></path><path fill-rule="evenodd" clip-rule="evenodd" d="M15.8209 13.8138C15.6039 12.682 15.6039 11.5202 15.8209 10.3884C15.2257 9.41235 14.4772 8.5353 13.6032 7.78986C13.4208 8.91389 13.4208 10.0593 13.6032 11.1834C14.5041 11.9148 15.2565 12.8073 15.8209 13.8138Z" fill="#FFE600"></path><path fill-rule="evenodd" clip-rule="evenodd" d="M18.179 20.1885C18.3988 21.3179 18.4008 22.4779 18.185 23.608C18.7795 24.5846 19.5281 25.4618 20.4027 26.2066C20.5865 25.0836 20.5885 23.9391 20.4087 22.8155C19.5057 22.0843 18.7495 21.1934 18.179 20.1885Z" fill="#FFE600"></path><path fill-rule="evenodd" clip-rule="evenodd" d="M13.5936 11.1881C12.6953 10.4729 11.6877 9.90199 10.6083 9.49664C10.825 10.6144 11.2214 11.691 11.7825 12.6858C12.8823 13.0668 13.8995 13.6483 14.7811 14.3997C14.1851 13.4115 13.7824 12.3222 13.5936 11.1881Z" fill="#FFE600"></path><path fill-rule="evenodd" clip-rule="evenodd" d="M20.4088 22.8108C21.3056 23.5254 22.3116 24.0959 23.3894 24.501C23.172 23.3836 22.776 22.3072 22.2163 21.3119C21.1148 20.9293 20.0954 20.3477 19.2106 19.5968C19.811 20.5847 20.2175 21.675 20.4088 22.8108Z" fill="#FFE600"></path><path fill-rule="evenodd" clip-rule="evenodd" d="M14.0182 15.3032C13.1117 14.5782 12.3531 13.6904 11.7825 12.687C10.6891 12.3168 9.54303 12.1199 8.38696 12.1035C8.9796 13.0793 9.72572 13.9564 10.5975 14.702C11.766 14.689 12.9265 14.893 14.0182 15.3032Z" fill="#FFE600"></path><path fill-rule="evenodd" clip-rule="evenodd" d="M19.983 18.6956C20.8895 19.4218 21.6485 20.3103 22.2199 21.3142C23.3122 21.6838 24.457 21.8807 25.6119 21.8977C25.0207 20.9215 24.2753 20.0443 23.4037 19.2991C22.235 19.3124 21.0743 19.1076 19.983 18.6956Z" fill="#FFE600"></path><path fill-rule="evenodd" clip-rule="evenodd" d="M13.608 16.4112C12.5046 16.0334 11.4833 15.4544 10.5975 14.7044C9.44214 14.7226 8.29713 14.9219 7.20551 15.295C8.10208 16.0127 9.10795 16.5867 10.1861 16.9959C11.2794 16.5915 12.4402 16.3932 13.608 16.4112Z" fill="#FFE600"></path><path fill-rule="evenodd" clip-rule="evenodd" d="M20.3907 17.5865C21.4935 17.9663 22.5145 18.5456 23.4013 19.2945C24.5564 19.2744 25.7011 19.075 26.7933 18.7039C25.8975 17.9844 24.8909 17.4102 23.8115 17.003C22.7186 17.4076 21.5581 17.6055 20.3907 17.5865Z" fill="#FFE600"></path><path fill-rule="evenodd" clip-rule="evenodd" d="M10.1861 17.0006C9.10728 17.4084 8.1012 17.9825 7.20551 18.7015C8.29729 19.0739 9.4422 19.2733 10.5975 19.2921C11.4837 18.5429 12.5049 17.9643 13.608 17.5865C12.4402 17.6035 11.2795 17.4048 10.1861 17.0006Z" fill="#FFE600"></path><path fill-rule="evenodd" clip-rule="evenodd" d="M23.8139 17.0006C24.8926 16.5919 25.899 16.0179 26.7957 15.2997C25.704 14.9269 24.559 14.7275 23.4037 14.7091C22.5166 15.4574 21.4945 16.0348 20.3907 16.4112C21.5592 16.3943 22.7205 16.5942 23.8139 17.0006Z" fill="#FFE600"></path><path fill-rule="evenodd" clip-rule="evenodd" d="M14.0182 18.6956C12.9266 19.1061 11.7659 19.3093 10.5975 19.2944C9.72553 20.0398 8.97938 20.9169 8.38696 21.893C9.54298 21.876 10.689 21.6791 11.7825 21.3095C12.3536 20.3071 13.1122 19.4202 14.0182 18.6956Z" fill="#FFE600"></path><path fill-rule="evenodd" clip-rule="evenodd" d="M19.9818 15.3032C21.0741 14.8939 22.235 14.6908 23.4037 14.7043C24.2751 13.959 25.0205 13.0819 25.6118 12.1058C24.457 12.1223 23.3121 12.3193 22.2199 12.6893C21.648 13.6919 20.8886 14.5788 19.9818 15.3032Z" fill="#FFE600"></path><path fill-rule="evenodd" clip-rule="evenodd" d="M15.8174 23.608C16.0379 24.7261 16.4375 25.8026 17.0012 26.7972C17.5639 25.8021 17.9634 24.7258 18.185 23.608C17.5893 22.6188 17.1877 21.5282 17.0012 20.3929C16.8141 21.528 16.4126 22.6186 15.8174 23.608Z" fill="#FFE600"></path><path fill-rule="evenodd" clip-rule="evenodd" d="M15.821 20.1885C15.2519 21.1923 14.4964 22.0819 13.5936 22.8107C13.4113 23.934 13.4113 25.0786 13.5936 26.2019C14.468 25.4568 15.2165 24.5797 15.8114 23.6033C15.5985 22.4744 15.6017 21.3163 15.821 20.1885Z" fill="#FFE600"></path><path fill-rule="evenodd" clip-rule="evenodd" d="M11.7825 21.3142C11.2209 22.3088 10.8245 23.3855 10.6083 24.5034C11.6879 24.0979 12.6955 23.5266 13.5936 22.8108C13.7852 21.6749 14.1921 20.5846 14.7931 19.5968C13.907 20.3491 12.886 20.9316 11.7825 21.3142Z" fill="#FFE600"></path><path fill-rule="evenodd" clip-rule="evenodd" d="M18.185 10.3919C17.9634 9.27411 17.5639 8.19779 17.0012 7.20276C16.4375 8.19733 16.0379 9.27381 15.8174 10.3919C16.4132 11.3815 16.8147 12.4726 17.0012 13.6082C17.1872 12.4724 17.5888 11.3813 18.185 10.3919Z" fill="#FFE600"></path><path fill-rule="evenodd" clip-rule="evenodd" d="M18.179 13.8138C18.7488 12.8088 19.5051 11.9181 20.4087 11.1881C20.5885 10.0637 20.5865 8.91833 20.4027 7.79456C19.5279 8.53913 18.7793 9.41634 18.185 10.3931C18.4007 11.5236 18.3986 12.684 18.179 13.8138Z" fill="#FFE600"></path><path fill-rule="evenodd" clip-rule="evenodd" d="M22.2199 12.687C22.7791 11.6915 23.175 10.6151 23.3929 9.49786C22.3139 9.90322 21.3067 10.4741 20.4088 11.1893C20.2169 12.3248 19.81 13.4146 19.2094 14.4021C20.095 13.6498 21.1162 13.068 22.2199 12.687Z" fill="#FFE600"></path></svg>
